<svg width="24" height="32" viewBox="0 0 24 32" fill="none" xmlns="http://www.w3.org/2000/svg">
<rect width="24" height="32" fill="#E5E5E5"/>
<g clip-path="url(#clip0)">
<rect width="1920" height="5661" transform="translate(-980 -5369)" fill="white"/>
<path d="M23.4787 6.115L17.5504 0.186709C17.4308 0.0671872 17.2687 0 17.0997 0H0.972167C0.620103 0 0.334717 0.285386 0.334717 0.63745V31.3626C0.334717 31.7146 0.620103 32 0.972167 32H23.0279C23.3799 32 23.6654 31.7146 23.6654 31.3626V6.56574C23.6654 6.39669 23.5982 6.23452 23.4787 6.115ZM17.7371 2.17645L21.4889 5.92829H17.7371V2.17645ZM22.3905 30.7251H1.60962V1.2749H16.4622V6.56574C16.4622 6.9178 16.7477 7.20319 17.0997 7.20319H22.3905V30.7251Z" fill="#3DC7C9"/>
<path d="M4.82886 11.0918H15.3787C15.7307 11.0918 16.0161 10.8064 16.0161 10.4543C16.0161 10.1023 15.7307 9.81689 15.3787 9.81689H4.82886C4.47679 9.81689 4.19141 10.1023 4.19141 10.4543C4.19141 10.8064 4.47679 11.0918 4.82886 11.0918Z" fill="#3DC7C9"/>
<path d="M19.1715 14.0239H4.82886C4.47679 14.0239 4.19141 14.3093 4.19141 14.6614C4.19141 15.0134 4.47679 15.2988 4.82886 15.2988H19.1715C19.5235 15.2988 19.8089 15.0134 19.8089 14.6614C19.8089 14.3093 19.5235 14.0239 19.1715 14.0239Z" fill="#3DC7C9"/>
<path d="M19.1715 18.231H4.82886C4.47679 18.231 4.19141 18.5163 4.19141 18.8684C4.19141 19.2205 4.47679 19.5059 4.82886 19.5059H19.1715C19.5235 19.5059 19.8089 19.2205 19.8089 18.8684C19.8089 18.5163 19.5235 18.231 19.1715 18.231Z" fill="#3DC7C9"/>
<path d="M19.1715 22.4385H4.82886C4.47679 22.4385 4.19141 22.7239 4.19141 23.0759C4.19141 23.428 4.47679 23.7134 4.82886 23.7134H19.1715C19.5235 23.7134 19.8089 23.428 19.8089 23.0759C19.8089 22.7239 19.5235 22.4385 19.1715 22.4385Z" fill="#3DC7C9"/>
<path d="M17.769 11.0918H19.1714C19.5234 11.0918 19.8089 10.8064 19.8089 10.4543C19.8089 10.1023 19.5234 9.81689 19.1714 9.81689H17.769C17.417 9.81689 17.1316 10.1023 17.1316 10.4543C17.1316 10.8064 17.417 11.0918 17.769 11.0918Z" fill="#3DC7C9"/>
</g>
<defs>
<clipPath id="clip0">
<rect width="1920" height="5661" fill="white" transform="translate(-980 -5369)"/>
</clipPath>
</defs>
</svg>
